# xmcd
#
# Track frame offsets:
#	150
#	14962
#	40603
#	67365
#	82844
#	108482
#
# Disc length: 1516 seconds
#
# Revision: 1
# Processed by: cddbd v1.5.2PL0 Copyright (c) Steve Scherf et al.
# Submitted via: audiograbber 1.83.01
#
DISCID=4d05ea06
DTITLE=Gummibär - Ich bin dein Gummibär (Maxi)
DYEAR=2006
DGENRE=
TTITLE0=Ich bin dein Gummibär (Radio Version)
TTITLE1=Ich bin dein Gummibär (Maxi Version)
TTITLE2=Ich bin dein Gummibär (Gelatine Clubmix)
TTITLE3=Ich bin dein Gummibär (Marshmellow Mix)
TTITLE4=Ich bin dein Gummibär (Itt van a Gummimaci)
TTITLE5=Daten-CD
EXTD=
EXTT0=
EXTT1=
EXTT2=
EXTT3=
EXTT4=
EXTT5=
PLAYORDER=
